<?xml version="1.0" standalone="no"?>
<!DOCTYPE svg PUBLIC "-//W3C//DTD SVG 20010904//EN"
 "http://www.w3.org/TR/2001/REC-SVG-20010904/DTD/svg10.dtd">
<svg version="1.0" xmlns="http://www.w3.org/2000/svg"
 width="512.000000pt" height="512.000000pt" viewBox="0 0 512.000000 512.000000"
 preserveAspectRatio="xMidYMid meet">

<g transform="translate(0.000000,512.000000) scale(0.100000,-0.100000)"
fill="#000000" stroke="none">
<path d="M2250 4994 c-333 -42 -655 -153 -942 -325 -630 -377 -1059 -1009
-1174 -1734 -22 -137 -30 -473 -14 -620 92 -897 680 -1683 1508 -2019 324
-132 575 -180 927 -180 444 0 793 88 1178 296 807 437 1310 1321 1273 2238
-12 306 -66 556 -182 842 -334 825 -1112 1409 -2006 1507 -130 15 -438 12
-568 -5z m466 -414 c1053 -85 1864 -961 1864 -2015 0 -322 -64 -601 -205 -890
-301 -620 -904 -1046 -1590 -1125 -130 -14 -354 -12 -484 5 -679 89 -1265 510
-1562 1119 -387 797 -215 1748 427 2355 372 352 845 545 1370 560 28 0 109 -4
180 -9z"/>
<path d="M2515 3931 c-69 -18 -116 -55 -151 -121 -18 -33 -19 -69 -22 -512
l-3 -478 -461 0 c-316 0 -473 -4 -499 -11 -200 -60 -195 -357 7 -408 28 -7
203 -11 498 -11 l455 0 3 -477 c3 -467 3 -479 25 -518 80 -149 282 -160 368
-20 l30 48 3 483 3 483 482 3 482 3 47 28 c139 81 139 283 0 364 l-47 28 -482
3 -482 3 -3 483 -3 483 -30 48 c-45 73 -143 116 -220 96z"/>
</g>
</svg>
