<?xml version="1.0" standalone="no"?>
<!DOCTYPE svg PUBLIC "-//W3C//DTD SVG 20010904//EN"
 "http://www.w3.org/TR/2001/REC-SVG-20010904/DTD/svg10.dtd">
<svg version="1.0" xmlns="http://www.w3.org/2000/svg"
 width="512.000000pt" height="512.000000pt" viewBox="0 0 512.000000 512.000000"
 preserveAspectRatio="xMidYMid meet">

<g transform="translate(0.000000,512.000000) scale(0.100000,-0.100000)"
fill="#000000" stroke="none">
<path d="M2330 5110 c-494 -48 -950 -230 -1350 -538 -195 -150 -448 -432 -594
-662 -63 -99 -186 -351 -230 -471 -49 -132 -101 -338 -128 -499 l-23 -135 0
-1352 c0 -1349 0 -1352 21 -1379 11 -15 33 -37 48 -48 27 -21 30 -21 1379 -21
l1352 0 135 23 c280 47 500 116 745 237 269 132 460 269 681 489 220 221 357
412 489 681 88 179 132 296 180 476 63 240 78 371 78 649 0 278 -15 409 -78
649 -48 180 -92 297 -180 476 -132 269 -269 460 -489 681 -221 220 -412 357
-681 489 -246 121 -474 193 -740 235 -147 23 -475 34 -615 20z m1436 -1936
c53 -39 69 -71 69 -134 0 -63 -16 -95 -69 -134 -27 -21 -34 -21 -1184 -24
-793 -2 -1169 0 -1194 8 -101 29 -140 168 -71 251 52 62 -19 59 1255 56 1161
-2 1167 -2 1194 -23z m-960 -960 c53 -39 69 -71 69 -134 0 -63 -16 -95 -69
-134 -27 -21 -39 -21 -704 -24 -457 -2 -689 0 -714 8 -101 29 -140 168 -71
251 51 61 25 59 775 56 676 -2 687 -2 714 -23z"/>
</g>
</svg>
